# xmcd
#
# Track frame offsets: 
#        150
#        27143
#        57573
#
# Disc length: 1174 seconds
#
# Revision: 0
# Processed by: cddbd v1.5.2PL0 Copyright (c) Steve Scherf et al.
# Submitted via: ExactAudioCopy v0.95b4
#
DISCID=20049403
DTITLE=Jason Nevins vs. Eric B and Rakim - I know you got soul
DYEAR=2002
DGENRE=
TTITLE0=Original Mix
TTITLE1=Caba Kroll Mix
TTITLE2=Breakz Mix
EXTD=
EXTT0=
EXTT1=
EXTT2=
PLAYORDER=
